    <svg
      width="26"
      height="29"
      viewBox="0 0 26 29"
      fill="none"
      xmlns="http://www.w3.org/2000/svg"
    >
      <path
        d="M25.7594 3.80195V0.404464H18.9645C18.2364 0.202232 16.7804 0 15.4861 0C10.673 0 7.43727 3.03347 7.43727 7.36123C7.43727 9.99024 8.61021 11.9317 10.5516 13.0237C8.08441 14.6011 7.27548 16.0976 7.27548 17.8368C7.27548 19.2524 7.84173 20.5467 9.41914 21.3961V21.6792C6.95191 23.5397 6.58789 24.3082 6.58789 25.4407C6.58789 27.7462 8.73155 29 14.1109 29C20.9463 29 25.7594 25.6025 25.7594 21.5579C25.7594 17.9582 23.4136 16.2594 18.8836 16.2594H12.5335C12.3313 16.0167 12.2504 15.7336 12.2504 15.4909C12.2504 14.9651 12.6144 14.3989 13.2211 14.0753C13.9491 14.2775 15.203 14.4393 16.1332 14.4393C21.1486 14.4393 24.3034 11.4867 24.3034 7.6039C24.3034 6.39052 23.9394 5.29847 23.4135 4.65132V4.40865C24.3843 4.40865 25.3145 4.16597 25.7594 3.80195ZM20.5419 23.5398C20.5419 23.7824 20.461 24.2273 20.3801 24.3891C19.4903 24.834 17.3466 25.2385 15.6883 25.2385C12.6144 25.2385 11.8864 24.6722 11.8864 23.7015C11.8864 23.3375 12.0077 22.7713 12.4931 21.9219L17.5893 22.1241C19.8138 22.205 20.5419 22.6904 20.5419 23.5398ZM18.0342 7.28033C18.0342 10.0307 17.4275 10.7992 16.9826 10.9205C16.659 11.0014 16.3759 11.0418 16.0928 11.0418C14.4749 11.0418 13.666 9.788 13.666 7.159C13.666 4.44909 14.3131 3.68061 14.7176 3.55928C15.0412 3.43794 15.3243 3.43793 15.6074 3.43793C17.2253 3.43793 18.0342 4.69177 18.0342 7.28033Z"
        fill='#0A0A0A'
      />
      <path
        d="M0.000288514 10.2733C0.768768 10.4351 1.53725 10.516 2.30573 10.516C2.99331 10.516 3.80224 10.4351 4.53027 10.2733L4.53027 0.242665C3.80224 0.08088 2.99331 -1.08004e-05 2.30573 -1.08305e-05C1.53725 -1.08641e-05 0.728323 0.0808798 0.000288953 0.242665L0.000288514 10.2733Z"
        fill='#51C0E2'
      />
    </svg>